<?xml version="1.0"?>
<svg width="495" height="311" xmlns="http://www.w3.org/2000/svg" xmlns:svg="http://www.w3.org/2000/svg" xmlns:xlink="http://www.w3.org/1999/xlink">
 <!-- Created with SVG-edit - https://github.com/SVG-Edit/svgedit-->
 <defs>
  <symbol height="800px" id="svg_359" version="1.1" viewBox="0 -139.5 750 750" width="800px" xmlns="http://www.w3.org/2000/svg" xmlns:xlink="http://www.w3.org/1999/xlink">
   <desc>Created with Sketch.</desc>

   <g fill="none" fill-rule="evenodd" id="svg_353">
    <g fill-rule="nonzero" id="svg_354">
     <rect fill="#000000" height="471" id="svg_358" rx="40" width="750" x="0" y="0"/>
     <g id="svg_355" transform="translate(133.000000, 48.000000)">
      <path d="m88.13,373.67l0,-24.85c0,-9.53 -5.8,-15.74 -15.32,-15.74c-5,0 -10.35,1.66 -14.08,7c-2.9,-4.56 -7,-7 -13.25,-7c-4.72,-0.2 -9.23,1.97 -12,5.8l0,-5l-7.87,0l0,39.76l7.87,0l0,-22.75c0,-7 4.14,-10.35 9.94,-10.35c5.8,0 9.11,3.73 9.11,10.35l0,22.78l7.87,0l0,-22.78c0,-7 4.14,-10.35 9.94,-10.35c5.8,0 9.11,3.73 9.11,10.35l0,22.78l8.68,0zm129.22,-39.35l-14.5,0l0,-12l-7.85,0l0,12l-8.28,0l0,7l8.28,0l0,18.68c0,9.11 3.31,14.5 13.25,14.5c3.77,-0.08 7.46,-1.07 10.75,-2.9l-2.49,-7c-2.23,1.4 -4.83,2.12 -7.46,2.07c-4.14,0 -6.21,-2.49 -6.21,-6.63l0,-19.04l14.5,0l0,-6.63l0.01,-0.05zm73.72,-1.24c-4.36,-0.1 -8.45,2.11 -10.77,5.8l0,-5l-7.87,0l0,39.76l7.87,0l0,-22.33c0,-6.63 3.31,-10.77 8.7,-10.77c1.82,0.07 3.62,0.35 5.38,0.83l2.49,-7.46c-1.9,-0.48 -3.84,-0.76 -5.8,-0.83zm-111.41,4.14c-4.14,-2.9 -9.94,-4.14 -16.15,-4.14c-9.94,0 -16.15,4.56 -16.15,12.43c0,6.63 4.56,10.35 13.25,11.6l4.14,0.41c4.56,0.83 7.46,2.49 7.46,4.56c0,2.9 -3.31,5 -9.53,5c-4.75,0.1 -9.4,-1.36 -13.25,-4.14l-4.14,6.21c5.8,4.14 12.84,5 17,5c11.6,0 17.81,-5.38 17.81,-12.84c0,-7 -5,-10.35 -13.67,-11.6l-4.14,-0.41c-3.73,-0.41 -7,-1.66 -7,-4.14c0,-2.9 3.31,-5 7.87,-5c5,0 9.94,2.07 12.43,3.31l4.07,-6.25zm120.11,16.57c0,12 7.87,20.71 20.71,20.71c5.8,0 9.94,-1.24 14.08,-4.56l-4.14,-6.21c-2.93,2.37 -6.58,3.69 -10.35,3.73c-7,0 -12.43,-5.38 -12.43,-13.25c0,-7.87 5.36,-13.21 12.43,-13.21c3.77,0.04 7.42,1.36 10.35,3.73l4.14,-6.21c-4.14,-3.31 -8.28,-4.56 -14.08,-4.56c-12.43,-0.83 -20.71,7.87 -20.71,19.88l0,-0.05zm-55.5,-20.71c-11.6,0 -19.47,8.28 -19.47,20.71c0,12.43 8.28,20.71 20.29,20.71c5.84,0.12 11.55,-1.78 16.15,-5.38l-4.14,-5.8c-3.33,2.58 -7.39,4.03 -11.6,4.14c-5.38,0 -11.18,-3.31 -12,-10.35l29.41,0l0,-3.31c0,-12.43 -7.46,-20.71 -18.64,-20.71l0,-0.01zm-0.41,7.46c5.8,0 9.94,3.73 10.35,9.94l-21.53,0c1.24,-5.8 5,-9.94 11.18,-9.94zm-107.27,13.25l0,-19.88l-7.87,0l0,5c-2.9,-3.73 -7,-5.8 -12.84,-5.8c-11.18,0 -19.47,8.7 -19.47,20.71c0,12.01 8.28,20.71 19.47,20.71c5.8,0 9.94,-2.07 12.84,-5.8l0,5l7.87,0l0,-19.94zm-31.89,0c0,-7.46 4.56,-13.25 12.43,-13.25c7.46,0 12,5.8 12,13.25c0,7.87 -5,13.25 -12,13.25c-7.87,0.41 -12.43,-5.8 -12.43,-13.25zm306.08,-20.71c-4.36,-0.1 -8.45,2.11 -10.77,5.8l0,-5l-7.87,0l0,39.76l7.86,0l0,-22.33c0,-6.63 3.31,-10.77 8.7,-10.77c1.82,0.07 3.62,0.35 5.38,0.83l2.49,-7.46c-1.9,-0.48 -3.84,-0.76 -5.8,-0.83l0.01,0zm-30.65,20.71l0,-19.88l-7.87,0l0,5c-2.9,-3.73 -7,-5.8 -12.84,-5.8c-11.18,0 -19.47,8.7 -19.47,20.71c0,12.01 8.28,20.71 19.47,20.71c5.8,0 9.94,-2.07 12.84,-5.8l0,5l7.87,0l0,-19.94zm-31.89,0c0,-7.46 4.56,-13.25 12.43,-13.25c7.46,0 12,5.8 12,13.25c0,7.87 -5,13.25 -12,13.25c-7.87,0.41 -12.43,-5.8 -12.43,-13.25zm111.83,0l0,-35.62l-7.87,0l0,20.71c-2.9,-3.73 -7,-5.8 -12.84,-5.8c-11.18,0 -19.47,8.7 -19.47,20.71c0,12.01 8.28,20.71 19.47,20.71c5.8,0 9.94,-2.07 12.84,-5.8l0,5l7.87,0l0,-19.91zm-31.89,0c0,-7.46 4.56,-13.25 12.43,-13.25c7.46,0 12,5.8 12,13.25c0,7.87 -5,13.25 -12,13.25c-7.88,0.42 -12.44,-5.79 -12.44,-13.25l0.01,0z" fill="#FFFFFF" id="svg_356"/>
      <g>
       <rect fill="#FF5F00" height="234.42" id="svg_357" width="143.72" x="170.55" y="32.39"/>
       <path d="m185.05,149.6c0.01,-45.69 20.91,-88.86 56.74,-117.21c-61.13,-48.06 -148.93,-41.08 -201.69,16.05c-52.76,57.12 -52.76,145.2 0,202.32c52.76,57.13 140.56,64.11 201.69,16.05c-35.83,-28.35 -56.73,-71.52 -56.74,-117.21z" fill="#EB001B" id="Shape"/>
       <path d="m483.26,149.6c0.04,57.05 -32.5,109.11 -83.8,134.06c-51.31,24.95 -112.35,18.4 -157.2,-16.85c35.84,-28.34 56.74,-71.52 56.74,-117.21c0,-45.69 -20.9,-88.87 -56.74,-117.21c44.85,-35.25 105.89,-41.8 157.2,-16.85c51.3,24.95 83.84,77.01 83.8,134.06z" fill="#F79E1B" id="Shape"/>
      </g>
     </g>
    </g>
   </g>
  </symbol>
 </defs>
 <g class="layer">
  <title>Layer 1</title>
  <use id="svg_360" transform="matrix(0.61825 0 0 0.61825 -0.00340676 -91.9913)" xlink:href="#svg_359"/>
 </g>
</svg>