<?xml version="1.0" encoding="UTF-8"?>
<svg id="Capa_2" data-name="Capa 2" xmlns="http://www.w3.org/2000/svg" xmlns:xlink="http://www.w3.org/1999/xlink" viewBox="0 0 239.89 234.47">
  <defs>
    <style>
      .cls-1 {
        fill: none;
      }

      .cls-2 {
        clip-path: url(#clippath-1);
      }

      .cls-3 {
        clip-path: url(#clippath-2);
      }

      .cls-4 {
        fill: #f2972a;
      }

      .cls-5 {
        fill: #ebd1b1;
      }

      .cls-6 {
        clip-path: url(#clippath);
      }
    </style>
    <clipPath id="clippath">
      <rect class="cls-1" x="32.28" y="31.06" width="180" height="174.67"/>
    </clipPath>
    <clipPath id="clippath-1">
      <rect class="cls-1" x="33.02" y="26.4" width="173.7" height="184.26" transform="translate(-2.87 234.1) rotate(-87.95)"/>
    </clipPath>
    <clipPath id="clippath-2">
      <rect class="cls-1" x="33.02" y="26.4" width="173.7" height="184.26" transform="translate(-2.87 234.1) rotate(-87.95)"/>
    </clipPath>
  </defs>
  <g id="Capa_1-2" data-name="Capa 1">
    <path class="cls-4" d="M174.84,30.25l5.72,9.03,10.35,2.65c46.24,11.72,64.45,67.71,33.9,104.41l-6.85,8.22.71,10.69c3.17,47.62-44.49,82.23-88.8,64.5l-9.93-3.97-9.93,3.97c-44.31,17.73-91.92-16.88-88.8-64.5l.71-10.69-6.85-8.22C-15.48,109.64,2.72,53.66,48.97,41.93l10.36-2.65,5.77-9.03c25.44-40.33,84.31-40.33,109.75,0Z"/>
    <g class="cls-6">
      <g class="cls-2">
        <g class="cls-3">
          <path class="cls-5" d="M155.54,33.08c-.38-.01-.76,0-1.15.01-15.35,2.09-24.31,17.92-26.03,32.1-2.24,12.84,2.85,29.64,16.93,33.04,2.04.46,4.18.36,6.21-.11,17.27-5.11,25.63-25.05,23.76-41.88-.33-10.84-8.06-22.89-19.72-23.15ZM90.85,31.46c-9.49-.1-17.23,9.25-19.05,18.24-3.81,17.8,3.55,40.35,22.01,46.69,1.74.44,3.54.55,5.32.33,12.69-1.65,18.54-15.6,18.42-27.04.16-15.08-7.04-32.77-22.54-37.57-1.41-.43-2.8-.64-4.16-.65h0ZM195.03,86.13c-16.44.4-28.28,16.36-30.43,31.59-2.57,10.95,2.79,25.91,15.33,27.23,17.55.41,30.19-17.91,31.26-34.02,1.49-10.63-4.33-23.8-16.17-24.81ZM51.28,84.63c-6.98-.31-13.99,3.63-16.53,10.65-6.76,18.76,4.6,43.24,24.56,47.95,8.34,1.73,15.94-4.44,18.3-12.13,5-16.42-3.37-36-18.43-44.08-2.45-1.49-5.18-2.27-7.91-2.39h0ZM123.62,121.3c-13.68-.46-27.83,5.99-37.06,16.01-10,11.71-18.34,25.45-21.95,40.55-4.11,10.81,3.88,23.71,15.58,24.2,14.06.9,26.51-8.34,40.53-8.56,11.94-1.39,22.35,5.17,32.89,9.59,8.95,4.21,21.57,3.17,26.56-6.45,4.01-9.84-.98-20.67-5.12-29.68-8.57-14.7-17.76-30.16-32.32-39.66-5.83-3.91-12.41-5.79-19.09-6.01Z"/>
        </g>
      </g>
    </g>
  </g>
</svg>