<?xml version="1.0" encoding="UTF-8"?>
<svg id="Capa_2" data-name="Capa 2" xmlns="http://www.w3.org/2000/svg" xmlns:xlink="http://www.w3.org/1999/xlink" viewBox="0 0 231.63 232.86">
  <defs>
    <style>
      .cls-1 {
        fill: none;
      }

      .cls-2 {
        fill: #f2972a;
      }

      .cls-3 {
        clip-path: url(#clippath);
      }
    </style>
    <clipPath id="clippath">
      <rect class="cls-1" x="60.77" y="64.71" width="110.6" height="105.58"/>
    </clipPath>
  </defs>
  <g id="Capa_1-2" data-name="Capa 1">
    <path class="cls-2" d="M111.32,198.58c-.07.32-.17.86-.31,1.63-.14.76-.29,1.59-.46,2.5-.17.9-.32,1.73-.46,2.48-.15.76-.26,1.3-.33,1.63-.13.61-.32,1.54-.58,2.79-.26,1.25-.56,2.67-.9,4.27-.33,1.61-.68,3.29-1.04,5.04-.36,1.75-.71,3.44-1.04,5.06-.34,1.63-.65,3.06-.92,4.31-.26,1.26-.46,2.19-.58,2.79-.07,1.05-.39,1.63-.96,1.71-.57.09-1.09.09-1.58-.02-.8-.08-1.51-.19-2.13-.31-.63-.11-1.33-.25-2.13-.42-.26-.06-.66-.14-1.19-.25-.54-.11-.83-.17-.88-.17-.28-.06-.73-.16-1.38-.31-.65-.16-1.34-.33-2.08-.52-.73-.18-1.41-.35-2.02-.52-.61-.17-1.01-.29-1.21-.38-1.64-.46-3.17-1.14-4.6-2.02-1.44-.89-2.55-2.02-3.33-3.4-.78-1.38-.96-3.04-.56-4.98.38-1.81.95-3.43,1.73-4.88.78-1.45,1.94-2.6,3.48-3.48.31-.2.82-.4,1.54-.6.72-.21,1.2-.43,1.44-.67-.21-.42-.48-.79-.81-1.13-.34-.32-.61-.69-.81-1.1-.94-2-1.19-4.06-.75-6.19.46-2.22,1.33-3.89,2.63-4.98,1.28-1.11,2.8-1.82,4.56-2.15,1.75-.32,3.58-.38,5.5-.19,1.91.2,3.74.48,5.5.85.03,0,.1.02.23.04.13.03.19.04.19.04.17.04.53.15,1.08.31.54.16,1.07.31,1.58.48.52.17.88.27,1.08.31.63.21,1.2.47,1.73.79.52.31.77.84.77,1.6ZM98.03,208.77l1.27-5.81s-.03-.1-.15-.17c-.13-.06-.21-.1-.25-.15h-.02s-.05-.01-.08-.02c-.23-.04-.61-.08-1.15-.13-.54-.04-1.05.04-1.52.25-.48.21-.81.61-.98,1.21-.38,1.36-.4,2.36-.06,3,.33.64.79,1.07,1.38,1.31.58.23,1.05.39,1.4.46.04.01.08.02.1.02.02,0,.04,0,.06.02ZM95.46,222.08c.07-.08.16-.29.25-.6.1-.31.16-.49.17-.56.04-.22.14-.65.27-1.27.13-.61.27-1.23.42-1.85.14-.61.23-1.04.27-1.27-.57-.11-1.24-.22-2.02-.31-.79-.1-1.51-.02-2.17.23-.67.25-1.09.8-1.27,1.65-.15.75-.01,1.4.42,1.94.42.54.95.98,1.6,1.31.64.34,1.26.58,1.85.71.04.01.09.02.15.02.04.01.06.02.06.02Z"/>
    <path class="cls-2" d="M88.21,193.29c.24.28.4.58.48.92.07.34.02.67-.15.96-.01.01-.04.05-.08.13-.04.07-.06.1-.06.1-1.23,1.11-2.42,2.14-3.56,3.08-1.14.96-2.23,1.86-3.27,2.71-.32.26-.63.53-.92.81-.3.29-.61.56-.94.81-3.54,3.04-6.46,5.53-8.77,7.48-2.32,1.94-4.16,3.48-5.52,4.63-1.36,1.14-2.4,1.98-3.1,2.52s-1.21.89-1.5,1.04c-.29.17-.54.26-.75.29-1.69-.66-3.36-1.41-5-2.25-1.65-.85-3.26-1.74-4.83-2.69-.09-.06-.32-.2-.67-.42-.36-.21-.6-.35-.73-.42-.57-.6-.86-1.31-.88-2.15-.03-.83.08-1.68.31-2.54.24-.86.45-1.62.65-2.27,1.38-4.66,2.95-9.34,4.71-14.06,1.77-4.72,3.57-9.28,5.42-13.67.03-.33.08-.57.15-.71.07-.15.18-.35.33-.6.14-.25.31-.46.52-.63s.49-.15.83.06c.06.03.17.1.33.21.17.1.54.35,1.13.77.57.41,1.49,1.04,2.75,1.92,1.27.86,3.02,2.08,5.27,3.65.5.29.79.68.88,1.17.07.47-.03.97-.31,1.48l-5,9.81h.02v.02s.07.04.08.04c.02.01.02.02.02.02.16.08.51.21,1.06.38.56.17.9.28,1.02.35.07.01.18.04.33.08.14.04.26.03.35-.04.29-.29.79-.79,1.5-1.48.71-.68,1.49-1.42,2.35-2.21.86-.79,1.64-1.52,2.33-2.19.7-.68,1.19-1.16,1.48-1.44.03-.03.06-.04.08-.04.02-.01.03-.03.04-.06.31-.29.7-.61,1.17-.98.46-.38.93-.5,1.42-.38.08.06.28.17.58.33.31.16.49.24.56.27,1.36.83,2.66,1.67,3.88,2.5,1.22.83,2.56,1.72,4,2.67ZM58.39,208.54c.22.13.42.1.58-.06.16-.16.31-.29.46-.4.31-.41.72-.91,1.25-1.5.53-.58,1.06-1.17,1.58-1.75.52-.58.95-1.08,1.31-1.5.36-.42.54-.63.54-.63l.65-1.06c-.42-.27-.84-.52-1.29-.77-.46-.25-.9-.48-1.31-.69-.03.03-.05.07-.08.13-.04.07-.07.13-.08.17-.01.01-.03.04-.06.08-.03.05-.04.08-.04.08-.15.25-.39.72-.71,1.42-.33.69-.69,1.43-1.08,2.21-.39.78-.75,1.5-1.08,2.17-.34.68-.59,1.15-.73,1.42-.21.15-.27.28-.19.4.08.13.18.22.29.29Z"/>
    <path class="cls-2" d="M62.56,177.6l-27.27,22.27c-.9-.67-2-1.57-3.29-2.71-1.29-1.13-2.63-2.38-4-3.75-1.38-1.36-2.59-2.7-3.65-4.02-1.07-1.32-1.92-2.78-2.54-4.38-.64-1.6-.99-3.24-1.06-4.92-.08-1.67.2-3.27.85-4.81.66-1.55,1.74-2.94,3.25-4.15,1.02-.82,2.04-1.23,3.06-1.23,1.02-.01,2.13.08,3.33.29,1.1.14,2.06.36,2.9.67.83.31,1.72.68,2.67,1.13,0,0,.08.02.23.04.06-.33.18-.94.35-1.81.17-.89.35-1.83.54-2.83.18-1,.36-1.92.54-2.75.18-.84.3-1.44.35-1.79.14-.89.41-1.81.79-2.77.39-.96.95-1.73,1.69-2.33.77-.59,1.53-.83,2.29-.71.77.13,1.52.45,2.25.96.72.52,1.39,1.11,2,1.79.61.67,1.12,1.25,1.52,1.75.5.63.79,1.32.88,2.08.07.77-.01,1.55-.25,2.35l-2.77,8.48c.21-.17.64-.48,1.27-.96.64-.47,1.28-.92,1.92-1.35.63-.44,1.06-.76,1.29-.94,2.02-1.46,3.91-1.27,5.69.56.21.2.54.54,1,1.04.46.49.91.97,1.33,1.44.42.46.7.75.83.88.02.02.16.2.44.54.28.35.47.59.58.73.07.08.24.29.52.63.27.33.42.53.46.58ZM37.71,183.28s.11-.13.25-.29c.14-.16.2-.27.19-.33.03-.03,0-.13-.08-.29-.08-.16-.16-.27-.23-.35-.53-.66-1.23-1.24-2.13-1.77-.9-.53-1.84-.84-2.81-.94-.98-.08-1.86.18-2.63.79-.44.36-.67.82-.67,1.4-.01.57.14,1.07.44,1.5.06.08.24.31.54.69.31.39.49.63.56.71.36.44.72.88,1.08,1.29.36.42.79.78,1.29,1.1,0,0,.01-.01.02-.02.04-.03.06-.04.06-.04.2-.16.58-.47,1.17-.96.57-.47,1.15-.96,1.73-1.46s.99-.84,1.21-1.02Z"/>
    <path class="cls-2" d="M38.48,139.86c-1.67,1.67-3.21,3.48-4.65,5.44-1.43,1.96-2.59,4.04-3.5,6.23.28-.09.74-.24,1.4-.44.66-.21,1.38-.43,2.17-.67.79-.25,1.52-.47,2.17-.67.64-.19,1.09-.34,1.35-.44.38-.13.89-.27,1.54-.44.66-.18,1.29-.26,1.92-.23.61.02,1.07.24,1.38.69.03.08.1.28.21.58.11.29.18.48.21.56.04.13.11.33.21.6.1.27.16.42.17.46.04.25.18.74.4,1.46.21.71.41,1.43.58,2.15.18.71.31,1.21.38,1.5.1.53-.09.95-.56,1.25-.48.31-.91.55-1.27.73-.03.02-.04.02-.04.02,0,0-.02.01-.06.02-1.65.71-3.19,1.33-4.63,1.88-1.43.54-3.07,1.14-4.92,1.79-3.43,1.23-7.05,2.51-10.88,3.81-3.83,1.3-7.43,2.6-10.79,3.9l-.63-.29s-.2-.36-.48-1c-.28-.63-.57-1.35-.9-2.17-.33-.82-.59-1.49-.77-2-.03-.07-.1-.26-.23-.56-.13-.29-.21-.5-.25-.63-.36-1-.55-1.87-.56-2.6-.03-.74.51-1.31,1.6-1.71.95-.33,2.09-.75,3.44-1.25,1.35-.5,2.52-.92,3.5-1.27.17-.07.54-.2,1.1-.4.56-.21.92-.34,1.08-.4l-.19-.08c-.33-.05-.9-.16-1.69-.31-.8-.15-1.68-.32-2.63-.52-.96-.21-1.84-.39-2.65-.54-.82-.17-1.39-.27-1.71-.31-.46-.09-1.08-.21-1.88-.33s-1.55-.32-2.27-.58c-.73-.28-1.2-.69-1.4-1.23-.01-.03-.03-.06-.04-.1-.01-.04-.02-.06-.02-.06l-1.48-6.75c-.08-.39-.09-.78-.04-1.19.06-.4.31-.69.75-.85.21-.07.43-.09.67-.08.24,0,.48.02.73.04l16.75,2.63h.06s.04-.02.04-.02c.17-.07.3-.19.4-.35.17-.25.49-.71.98-1.4.49-.68,1.02-1.41,1.58-2.19.56-.79,1.08-1.51,1.58-2.17.49-.65.83-1.11,1.04-1.38.13-.21.43-.58.9-1.13.47-.55.95-1.11,1.42-1.69.46-.57.78-.97.96-1.21.11-.09.33-.3.65-.6.31-.3.64-.63.98-.96.33-.34.58-.58.73-.71.22-.22.52-.48.9-.79.36-.32.71-.54,1.04-.67.52-.18.96-.15,1.33.1.36.25.67.59.92,1.02.24.43.43.85.58,1.27.04.14.13.37.25.69.11.32.18.51.21.56.06.18.16.56.31,1.13.16.56.31,1.13.48,1.71s.29.99.38,1.23c.06.42.06.75.02,1s-.15.56-.33.92Z"/>
    <path class="cls-2" d="M36.27,130.2c-.05.32-.19.68-.42,1.08-.23.39-.59.57-1.06.54-.25.02-.71.05-1.4.1-.69.06-1.39.12-2.08.19-.71.06-1.17.09-1.4.1-.07,0-.34.02-.83.04-.48.03-1.01.06-1.56.08-.55.03-.97.04-1.25.04-.29.02-.69.04-1.19.06-.51.03-.99.06-1.44.08-.46.02-.7.02-.73.02-.54.03-1.44.06-2.69.08-1.25.02-2.67.04-4.25.08s-3.15.08-4.71.13c-1.57.04-2.98.07-4.23.08-1.25.02-2.15.02-2.69.02-.18.02-.48.02-.92,0-.43-.01-.72-.04-.88-.08,0,0-.03-.01-.1-.04-.07-.03-.13-.04-.17-.04-.57-.33-1.03-.53-1.4-.58-.36-.07-.56-.46-.6-1.19v-.29c-.01-.13-.02-.21-.02-.25-.01-.5-.03-1.35-.06-2.56-.03-1.21-.04-2.52-.04-3.94-.01-1.43-.03-2.76-.06-3.98-.03-1.23-.05-2.08-.06-2.54-.01-.08-.02-.17-.02-.27,0-.11,0-.22-.02-.33.02-.79.06-1.66.15-2.6.07-.94.3-1.77.69-2.48.39-.71,1.07-1.08,2.04-1.13.07,0,.22,0,.46-.02.24-.01.38-.02.42-.02.14,0,.45.01.94.02.49,0,.99.02,1.5.04.5.02.88.03,1.13.04.36.03.85.11,1.46.25.61.13,1.01.42,1.19.88.02.18.04.54.06,1.08.02.54.04,1.08.06,1.63.03.54.05.92.06,1.13.04,1.06.08,2.14.13,3.23.03,1.1.06,2.17.1,3.21l2.98-.13c.02-.26.05-.71.1-1.33.04-.64.08-1.28.13-1.92.04-.64.08-1.06.1-1.27,0-.54.1-1.13.29-1.75.2-.63.64-.96,1.31-1h.27c.29.03.79.07,1.5.13.71.06,1.41.11,2.1.17.7.06,1.17.1,1.42.15.39.04.85.18,1.38.42.52.22.78.6.79,1.15l.27,5.63s.09.02.27.04c.18.03.31.04.38.02h.4c.21-.01.39-.03.52-.04.04,0,.19,0,.44-.02.25-.01.42-.02.5-.02l.1-8.08c.02-2.08,1.04-3.17,3.08-3.27.79-.04,1.56-.06,2.29-.06s1.53.02,2.38.04c1.27.06,2.02.73,2.25,2.02.1.39.21.95.33,1.67.13.71.24,1.36.35,1.96.1.6.15.95.15,1.04,0,.04.02.24.04.6.02.36.03.76.04,1.19.02.43.03.78.04,1.04.02.21.04.52.06.94.02.42.03.81.04,1.17.02.36.03.58.04.65,0,.25-.02.7-.06,1.35-.04.64-.09,1.34-.15,2.1-.05.77-.1,1.47-.15,2.13-.04.64-.07,1.11-.1,1.42Z"/>
    <path class="cls-2" d="M35.27,111.09L1.08,102.67c-.01-1.11.05-2.52.19-4.23.13-1.72.33-3.54.6-5.46.27-1.93.6-3.71,1.02-5.35.42-1.65,1.08-3.21,1.98-4.67.89-1.46,1.98-2.72,3.27-3.79,1.29-1.07,2.76-1.8,4.4-2.21,1.63-.4,3.39-.36,5.27.1,1.25.32,2.18.89,2.79,1.69.61.81,1.2,1.77,1.77,2.88.56.95.96,1.84,1.21,2.69.25.85.49,1.79.71,2.83,0,0,.03.06.08.19.31-.15.87-.42,1.69-.81.81-.39,1.67-.8,2.58-1.25.91-.46,1.75-.86,2.54-1.23.78-.38,1.32-.63,1.63-.77.79-.43,1.69-.78,2.69-1.04,1-.26,1.96-.28,2.88-.04.94.24,1.59.7,1.96,1.4.38.68.57,1.47.58,2.38.01.89-.06,1.78-.23,2.67-.17.89-.33,1.65-.48,2.27-.2.78-.58,1.43-1.15,1.96-.57.52-1.24.92-2.02,1.21l-8.44,2.88c.25.07.76.22,1.52.44.77.22,1.52.46,2.25.71.72.24,1.23.4,1.52.48,2.36.75,3.34,2.38,2.94,4.88-.03.29-.1.77-.23,1.44-.11.66-.23,1.29-.35,1.92-.11.63-.18,1.02-.19,1.19,0,.03-.06.26-.17.69-.11.43-.19.73-.23.9-.03.11-.1.38-.21.79-.1.42-.16.66-.19.73ZM15.79,94.63s.18.04.4.06c.21.02.33,0,.38-.06.04.02.1-.06.19-.23.08-.18.14-.32.17-.42.21-.82.25-1.74.13-2.77-.14-1.03-.46-1.96-.98-2.79-.51-.84-1.24-1.4-2.19-1.65-.55-.14-1.05-.03-1.5.31-.46.33-.78.76-.96,1.27-.01.08-.08.37-.21.85-.13.47-.2.76-.23.85-.14.57-.26,1.12-.38,1.65-.11.53-.15,1.09-.13,1.69h.04s.06.02.06.02c.24.06.72.18,1.46.35.74.17,1.48.33,2.23.5.74.17,1.24.29,1.52.35Z"/>
    <path class="cls-2" d="M48.22,70.75c-.22-.21-.61-.57-1.19-1.1-.58-.53-1.21-1.09-1.9-1.71-.68-.61-1.3-1.17-1.88-1.69-.58-.53-.98-.9-1.21-1.13-.46-.43-1.15-1.08-2.08-1.96-.93-.88-1.99-1.88-3.19-3-1.19-1.13-2.44-2.3-3.73-3.52-1.3-1.23-2.55-2.42-3.75-3.54-1.21-1.14-2.28-2.15-3.21-3.02-.94-.89-1.64-1.55-2.08-1.98-.88-.59-1.19-1.16-.96-1.69.22-.54.5-.99.83-1.35.52-.63.98-1.17,1.4-1.65.41-.47.89-1,1.44-1.58.18-.19.46-.48.83-.88.38-.4.58-.61.6-.65.2-.22.54-.56,1.02-1.02.47-.47.98-.97,1.52-1.5.54-.54,1.04-1.03,1.5-1.46.46-.43.78-.71.96-.83,1.24-1.17,2.61-2.13,4.13-2.88,1.5-.76,3.04-1.11,4.63-1.06,1.58.06,3.1.77,4.54,2.13,1.33,1.28,2.41,2.63,3.23,4.04.83,1.41,1.22,2.99,1.17,4.77.01.35-.08.89-.29,1.63-.21.72-.27,1.25-.17,1.58.44.04.9.01,1.35-.1.47-.13.94-.17,1.4-.15,2.18.25,4.05,1.12,5.63,2.6,1.67,1.56,2.64,3.18,2.92,4.85.28,1.67.09,3.33-.56,5-.66,1.67-1.56,3.27-2.73,4.79-1.17,1.53-2.37,2.95-3.6,4.27-.02.02-.07.07-.17.17l-.13.13c-.13.14-.41.4-.83.77-.42.36-.83.72-1.25,1.08-.42.35-.7.6-.83.75-.49.43-1,.79-1.54,1.08-.54.28-1.15.21-1.81-.21ZM46.51,54.1l4.29,4.15s.09.01.21-.06c.13-.07.21-.11.25-.13,0,0,0,0,.02-.02.01-.01.03-.03.04-.06.18-.18.42-.48.73-.9.32-.43.51-.91.58-1.44.07-.53-.1-1.01-.52-1.46-.96-1.05-1.81-1.6-2.54-1.65-.72-.04-1.33.13-1.81.5-.5.36-.88.68-1.13.94-.03.03-.05.06-.06.08-.01.02-.03.03-.06.04ZM36.51,44.96c.04.1.17.27.38.52s.34.4.4.44c.17.16.48.45.94.9.46.43.91.87,1.35,1.31.45.45.76.76.94.94.41-.42.85-.94,1.33-1.56.49-.64.8-1.3.94-2,.14-.69-.1-1.34-.73-1.94-.55-.51-1.17-.73-1.85-.67-.69.07-1.35.3-1.98.69-.63.38-1.15.79-1.58,1.23-.03.03-.05.06-.08.1-.03.03-.04.04-.04.04Z"/>
    <path class="cls-2" d="M64.83,53.81c-.35.06-.7.04-1.04-.06-.33-.11-.58-.31-.73-.6-.02-.03-.04-.07-.08-.15-.03-.07-.04-.1-.04-.1-.28-1.64-.53-3.19-.75-4.67-.22-1.47-.42-2.86-.58-4.19-.08-.42-.16-.82-.23-1.23-.08-.4-.15-.79-.19-1.17-.73-4.63-1.32-8.43-1.77-11.42-.46-3-.82-5.38-1.08-7.13-.28-1.76-.46-3.08-.54-3.96-.08-.89-.11-1.5-.1-1.83.02-.34.07-.6.17-.77,1.45-1.11,2.96-2.15,4.54-3.1s3.19-1.86,4.81-2.71c.09-.05.32-.18.69-.38.38-.19.63-.32.75-.38.8-.19,1.57-.07,2.29.35.72.43,1.38.97,1.98,1.63.61.66,1.15,1.22,1.6,1.71,3.25,3.6,6.42,7.39,9.52,11.38,3.11,3.97,6.06,7.9,8.85,11.77.25.2.42.36.5.5.09.13.21.31.35.56.13.27.21.53.25.79.04.27-.12.49-.48.69-.07.03-.19.09-.35.19-.17.08-.58.27-1.25.54-.66.28-1.68.73-3.08,1.35-1.39.61-3.35,1.48-5.88,2.6-.5.27-.98.3-1.44.1-.45-.19-.81-.54-1.1-1.04l-5.75-9.4s-.01.01-.02.02h-.02s-.05.04-.06.04h-.02c-.17.08-.47.33-.9.73-.42.39-.69.61-.81.67-.06.06-.14.14-.25.25-.1.1-.15.2-.15.31.08.41.23,1.09.46,2.06.22.96.44,2.02.67,3.17.22,1.14.44,2.18.65,3.13.21.95.35,1.62.44,2.02.01.03.01.06,0,.08,0,.02.01.04.04.08.08.41.16.91.23,1.5.07.58-.07,1.05-.42,1.4-.11.04-.31.16-.6.33-.29.18-.47.29-.52.31-1.43.74-2.83,1.41-4.19,2-1.35.6-2.8,1.27-4.35,2ZM67.44,20.46c-.22.11-.31.28-.25.5.05.22.09.43.1.6.17.49.36,1.11.58,1.88.23.75.46,1.5.69,2.25.23.75.44,1.39.6,1.92.17.53.25.79.25.79l.58,1.1c.44-.22.88-.46,1.31-.71.44-.26.88-.52,1.29-.77-.03-.03-.06-.07-.08-.13-.03-.07-.06-.13-.08-.17-.02-.03-.04-.06-.06-.1-.02-.05-.02-.08-.02-.08-.14-.25-.42-.69-.83-1.33-.42-.64-.86-1.32-1.33-2.06-.46-.73-.89-1.42-1.29-2.06-.39-.65-.66-1.1-.81-1.35-.03-.26-.11-.39-.25-.38-.14.02-.27.05-.4.1Z"/>
    <path class="cls-2" d="M91.62,40.17l-4.73-34.88c1.04-.43,2.39-.9,4.02-1.4,1.65-.51,3.42-1,5.31-1.46,1.89-.46,3.67-.79,5.35-1,1.68-.22,3.36-.18,5.04.13,1.69.29,3.27.85,4.73,1.67,1.47.82,2.69,1.91,3.67,3.27.97,1.36,1.58,3.01,1.83,4.94.17,1.28-.02,2.35-.54,3.23-.53.88-1.2,1.78-2.02,2.71-.68.85-1.37,1.55-2.06,2.1-.7.54-1.49,1.1-2.38,1.69,0,0-.05.06-.15.17.26.22.72.64,1.38,1.25.67.6,1.38,1.24,2.13,1.94.76.7,1.45,1.34,2.06,1.94.63.58,1.07.99,1.33,1.21.69.6,1.34,1.31,1.94,2.15.61.82.98,1.7,1.1,2.65.13.96-.07,1.74-.58,2.33-.5.58-1.16,1.05-1.98,1.4-.82.35-1.68.6-2.56.77-.89.17-1.66.29-2.31.38-.78.1-1.52-.01-2.23-.33-.7-.33-1.31-.81-1.85-1.44l-5.79-6.79c.04.27.09.79.15,1.58.07.79.13,1.58.17,2.35.04.77.08,1.29.13,1.58.18,2.47-.97,3.98-3.46,4.52-.29.08-.77.2-1.42.33-.66.13-1.29.25-1.92.38-.61.11-1.01.2-1.19.25-.03,0-.26.03-.69.08-.43.06-.74.1-.92.13-.11.02-.39.05-.81.1-.43.06-.68.08-.75.08ZM99.77,16.02s.05.17.1.38c.07.21.14.32.21.33,0,.04.09.07.27.08.19.02.34.02.46,0,.82-.09,1.69-.4,2.6-.9s1.67-1.15,2.25-1.94c.59-.79.83-1.67.71-2.65-.07-.55-.34-.98-.81-1.29-.47-.3-.99-.44-1.54-.42-.1.02-.39.06-.88.13-.49.06-.78.09-.88.1-.58.07-1.14.16-1.67.25-.53.08-1.07.25-1.63.5v.02s.02.02.02.02v.06c.03.25.09.75.21,1.5.11.75.22,1.5.33,2.25.13.75.2,1.27.23,1.56Z"/>
    <path class="cls-2" d="M136.37,39.4c-.54-2.28-1.27-4.54-2.19-6.79-.92-2.26-2.08-4.34-3.5-6.25-.06.28-.18.75-.35,1.42-.17.67-.35,1.41-.56,2.21-.2.81-.39,1.54-.56,2.19-.17.64-.28,1.1-.33,1.38-.08.39-.22.91-.42,1.56-.18.64-.45,1.21-.79,1.73-.33.53-.79.8-1.35.83-.08-.02-.29-.06-.6-.13-.31-.07-.49-.11-.56-.13-.14-.03-.35-.07-.63-.13-.28-.06-.44-.09-.48-.1-.24-.1-.72-.24-1.44-.44-.72-.2-1.44-.41-2.15-.63-.71-.23-1.2-.4-1.46-.48-.52-.19-.78-.57-.79-1.15-.02-.57,0-1.05.04-1.44v-.04s0-.02.02-.06c.26-1.8.54-3.45.83-4.94.29-1.5.63-3.21,1.02-5.13.75-3.57,1.57-7.32,2.46-11.25.89-3.94,1.66-7.69,2.31-11.23L125.48,0s.4.04,1.08.15c.69.1,1.47.22,2.33.38.88.14,1.57.27,2.1.38.07.02.26.05.58.1.32.04.55.08.69.1,1.03.22,1.86.52,2.5.88.64.36.84,1.11.6,2.25-.2.99-.44,2.19-.73,3.6-.28,1.42-.52,2.64-.73,3.67-.03.18-.1.56-.23,1.15s-.2.97-.23,1.15l.15-.15c.23-.25.63-.68,1.17-1.29.55-.61,1.16-1.26,1.81-1.96.67-.71,1.28-1.36,1.85-1.96.57-.61.96-1.04,1.17-1.29.32-.33.73-.8,1.25-1.42.51-.61,1.07-1.16,1.69-1.65.63-.48,1.22-.67,1.79-.54.03,0,.06.01.1.02.04.02.06.02.06.02l6.52,2.27c.38.13.71.32,1.02.58.32.27.43.63.33,1.08-.04.22-.14.43-.27.63-.13.2-.27.39-.42.56l-11,12.92s-.01.02-.02.06v.04c-.04.18-.02.35.08.52.14.28.36.8.69,1.56.33.77.68,1.59,1.04,2.48.36.89.69,1.72,1,2.48.3.77.51,1.31.63,1.63.09.21.26.66.48,1.35.23.7.48,1.39.73,2.08.25.7.42,1.18.5,1.46.04.16.1.45.19.88.09.42.2.85.31,1.31.13.47.19.8.21,1,.08.3.16.69.23,1.17.08.47.08.89,0,1.25-.1.53-.35.88-.77,1.06-.41.19-.85.28-1.35.25-.5-.02-.97-.06-1.4-.15-.14-.03-.38-.08-.71-.15-.33-.07-.54-.11-.6-.13-.17-.04-.54-.15-1.1-.31-.56-.16-1.14-.32-1.73-.5-.58-.17-.99-.27-1.23-.31-.39-.17-.68-.33-.85-.5-.18-.17-.39-.43-.63-.77Z"/>
    <path class="cls-2" d="M145.77,42.58c-.24-.21-.47-.52-.69-.94-.21-.4-.18-.8.08-1.19.11-.22.32-.64.65-1.25.32-.61.63-1.23.94-1.85.3-.63.51-1.03.6-1.23.04-.07.18-.31.42-.73.23-.43.48-.89.75-1.38.28-.5.48-.88.6-1.13.14-.25.33-.59.58-1.04.25-.44.48-.86.69-1.25.22-.4.34-.61.35-.65.26-.47.71-1.25,1.35-2.33.64-1.08,1.34-2.3,2.13-3.67.79-1.38,1.57-2.73,2.35-4.08.79-1.36,1.51-2.57,2.15-3.65.65-1.07,1.11-1.83,1.4-2.29.08-.17.24-.43.48-.79.25-.36.42-.59.52-.71,0,0,.03-.02.1-.06.07-.04.11-.08.13-.13.58-.29.99-.57,1.23-.85.23-.29.67-.26,1.31.08.05.03.14.08.25.15.11.06.19.09.23.1.43.25,1.17.69,2.21,1.31,1.05.61,2.19,1.29,3.4,2.02,1.22.74,2.36,1.42,3.42,2.04,1.07.61,1.8,1.03,2.21,1.25.07.04.15.09.25.15.09.04.19.09.29.15.65.42,1.36.91,2.13,1.46.76.56,1.34,1.19,1.73,1.9.4.7.38,1.47-.08,2.31-.04.07-.12.21-.23.42-.11.21-.18.33-.21.35-.06.13-.22.4-.48.81-.27.41-.54.82-.81,1.25-.28.42-.49.73-.65.94-.22.29-.55.67-.98,1.13-.43.46-.89.64-1.35.54-.17-.08-.49-.26-.96-.52-.47-.26-.95-.53-1.44-.79-.47-.26-.8-.44-.98-.54-.92-.5-1.85-1.02-2.81-1.56-.96-.55-1.89-1.08-2.79-1.58l-1.44,2.6c.19.16.55.42,1.06.79.53.36,1.05.73,1.56,1.1.53.36.88.61,1.04.75.46.29.9.69,1.33,1.19.43.49.48,1.03.17,1.63-.03.03-.06.06-.08.1-.02.04-.04.08-.06.13-.18.22-.48.63-.9,1.21-.41.57-.81,1.14-1.23,1.71-.41.56-.69.93-.85,1.1-.24.32-.59.64-1.06.96-.47.32-.95.35-1.42.1l-4.94-2.73s-.06.08-.17.23c-.11.14-.19.24-.23.29-.02.04-.08.16-.19.35-.1.18-.18.33-.25.46-.02.03-.08.16-.21.38-.13.22-.2.37-.23.44l6.81,4.31c1.79,1.09,2.19,2.55,1.19,4.35-.38.69-.76,1.35-1.15,1.98-.39.64-.81,1.3-1.27,1.98-.71,1.05-1.68,1.34-2.92.88-.38-.13-.91-.33-1.58-.6-.67-.27-1.29-.51-1.85-.73-.56-.21-.88-.34-.96-.4-.03-.02-.2-.11-.52-.29-.32-.17-.67-.35-1.04-.56s-.68-.38-.92-.5c-.18-.1-.46-.25-.83-.46-.36-.2-.7-.39-1.02-.56-.31-.17-.49-.27-.54-.31-.22-.11-.6-.36-1.15-.75-.54-.39-1.13-.81-1.75-1.25-.61-.43-1.19-.83-1.73-1.21-.53-.38-.91-.66-1.15-.83Z"/>
    <path class="cls-2" d="M162.58,51.71l25.04-24.73c.97.57,2.15,1.36,3.54,2.38,1.39,1.02,2.83,2.14,4.33,3.38,1.5,1.22,2.84,2.44,4.02,3.65,1.18,1.22,2.16,2.6,2.94,4.13.79,1.53,1.3,3.13,1.52,4.79.23,1.67.09,3.3-.42,4.9-.5,1.58-1.45,3.05-2.85,4.42-.92.9-1.89,1.4-2.9,1.5-1.02.11-2.14.11-3.38.02-1.1-.03-2.08-.16-2.94-.4-.85-.22-1.77-.51-2.75-.85h-.23c-.03.32-.09.92-.19,1.81-.08.9-.18,1.86-.27,2.88-.08,1.01-.18,1.94-.27,2.79-.1.86-.16,1.46-.19,1.81-.07.9-.25,1.84-.54,2.83-.29,1-.78,1.82-1.46,2.48-.7.68-1.43.99-2.21.94-.78-.06-1.56-.31-2.33-.75-.77-.45-1.48-.98-2.15-1.6-.67-.61-1.23-1.15-1.69-1.6-.56-.57-.91-1.23-1.06-1.98-.16-.75-.15-1.54.02-2.35l1.94-8.71c-.18.18-.57.53-1.17,1.06-.58.54-1.18,1.05-1.77,1.54-.6.5-1,.85-1.21,1.06-1.88,1.64-3.77,1.63-5.69-.04-.24-.18-.6-.49-1.1-.94-.5-.45-.99-.89-1.46-1.31-.47-.42-.78-.68-.92-.79-.02-.03-.18-.2-.48-.52l-.65-.65c-.08-.08-.28-.28-.58-.58-.29-.31-.47-.49-.52-.54ZM186.81,43.73s-.11.13-.25.29c-.14.17-.19.29-.15.38-.03.03,0,.12.1.27.09.14.18.25.25.33.58.6,1.34,1.12,2.29,1.56.96.43,1.93.65,2.92.65.98-.01,1.82-.35,2.52-1.02.42-.4.59-.88.54-1.44-.04-.57-.24-1.06-.58-1.48-.07-.07-.28-.28-.63-.63-.35-.36-.56-.57-.63-.65-.41-.42-.8-.81-1.19-1.19-.39-.38-.85-.7-1.4-.98,0,0-.01.01-.02.02-.03.03-.04.04-.04.04-.18.18-.54.54-1.06,1.08-.53.53-1.06,1.07-1.58,1.63-.53.54-.9.92-1.1,1.13Z"/>
    <path class="cls-2" d="M190.18,83.86c.3-.08.83-.24,1.58-.46.75-.22,1.56-.47,2.44-.73.89-.25,1.7-.48,2.44-.69.75-.22,1.28-.38,1.58-.46.61-.17,1.53-.42,2.75-.75,1.23-.33,2.65-.71,4.23-1.15,1.58-.43,3.23-.88,4.96-1.33,1.72-.47,3.38-.92,4.98-1.35,1.61-.44,3.03-.83,4.27-1.17,1.23-.33,2.15-.57,2.75-.73.96-.42,1.6-.39,1.94.08.34.46.58.93.71,1.42.28.77.51,1.45.69,2.04.19.58.4,1.27.6,2.04.07.28.17.68.31,1.21.15.52.23.79.23.83.08.28.2.74.35,1.4.15.65.3,1.34.46,2.08.17.73.31,1.42.44,2.04.14.63.22,1.03.25,1.23.33,1.68.43,3.36.29,5.04-.14,1.68-.65,3.18-1.52,4.5-.88,1.32-2.27,2.23-4.19,2.75-1.79.48-3.51.71-5.15.67-1.63-.04-3.19-.55-4.69-1.52-.29-.18-.7-.55-1.21-1.1-.52-.54-.94-.86-1.27-.96-.28.34-.49.75-.63,1.21-.13.46-.33.88-.6,1.25-1.35,1.73-3.07,2.89-5.17,3.46-2.2.58-4.08.55-5.65-.08-1.57-.64-2.9-1.68-3.98-3.1-1.07-1.42-1.95-3.02-2.65-4.81-.7-1.79-1.28-3.56-1.75-5.29-.02-.03-.04-.1-.06-.23-.03-.11-.04-.17-.04-.17-.06-.18-.14-.55-.23-1.1-.08-.56-.18-1.1-.27-1.65-.08-.53-.16-.9-.21-1.1-.1-.66-.14-1.29-.1-1.9.04-.6.41-1.07,1.1-1.42ZM205.26,91.11l-5.77,1.48s-.06.08-.06.21c0,.14-.01.23-.02.27v.02s.02.05.02.08c.07.23.21.59.42,1.08.21.5.51.92.92,1.25.42.33.92.44,1.52.31,1.39-.27,2.29-.7,2.71-1.29.42-.6.59-1.2.54-1.81-.06-.61-.14-1.1-.23-1.46,0-.03-.01-.06-.02-.08,0-.02-.01-.04-.02-.06ZM218.32,87.36c-.11-.03-.33-.02-.67.04-.32.05-.51.09-.56.1-.22.05-.64.17-1.25.33-.61.17-1.23.32-1.85.46-.61.15-1.04.26-1.27.31.15.57.36,1.23.65,1.98.29.75.69,1.36,1.21,1.83.51.47,1.19.59,2.02.38.73-.2,1.25-.6,1.54-1.23s.44-1.31.46-2.04c.01-.72-.06-1.38-.23-1.96-.02-.04-.03-.09-.04-.15v-.06Z"/>
    <path class="cls-2" d="M195.94,106.86c.14-.32.34-.6.6-.83.26-.24.56-.34.9-.31h.15c.08.01.13.02.13.02,1.54.61,3,1.21,4.38,1.79,1.38.59,2.67,1.16,3.88,1.69.4.15.79.3,1.17.44.39.14.76.29,1.1.46,4.33,1.79,7.89,3.28,10.67,4.46,2.79,1.18,5,2.11,6.63,2.81,1.64.71,2.86,1.25,3.67,1.63.8.38,1.34.66,1.63.85.28.19.46.38.54.54.19,1.82.28,3.65.27,5.5,0,1.84-.06,3.69-.19,5.52-.02.11-.04.38-.06.79-.03.42-.05.69-.06.83-.27.78-.77,1.36-1.5,1.75-.74.39-1.54.67-2.42.83-.88.18-1.65.34-2.31.48-4.77.89-9.66,1.61-14.67,2.19-5.02.57-9.9,1.03-14.65,1.38-.3.11-.53.17-.69.19-.17.01-.4,0-.69-.02-.29-.02-.55-.08-.79-.19-.25-.11-.36-.37-.33-.77,0-.07.01-.2.02-.4.02-.2.08-.65.19-1.35.11-.7.27-1.81.46-3.33.2-1.52.48-3.64.85-6.38.04-.57.27-1,.67-1.29.4-.28.9-.41,1.48-.4l10.98.02v-.02s.02-.07.02-.08v-.02c.01-.18-.04-.56-.15-1.15-.1-.57-.15-.93-.15-1.06-.02-.07-.04-.18-.08-.33-.03-.14-.09-.24-.19-.29-.39-.14-1.06-.37-2-.69-.93-.32-1.95-.68-3.04-1.08-1.08-.41-2.08-.77-3-1.08-.92-.32-1.56-.55-1.94-.69-.04,0-.07-.01-.08-.02-.02-.02-.04-.02-.08-.02-.39-.14-.85-.34-1.4-.6-.54-.25-.86-.62-.98-1.1.02-.11.02-.33.02-.67s.01-.54.02-.6c.11-1.6.27-3.14.46-4.6.2-1.47.39-3.06.58-4.77ZM223.01,126.55c.03-.25-.07-.42-.29-.5-.21-.07-.4-.15-.56-.23-.5-.1-1.14-.25-1.92-.46-.77-.2-1.53-.4-2.29-.6-.75-.2-1.4-.36-1.94-.5-.53-.13-.79-.19-.79-.19l-1.23-.08c-.04.5-.07,1-.08,1.5-.02.5-.02.98-.02,1.46.04.01.09.02.17.02.07,0,.13,0,.17.02h.21c.28.03.79.03,1.54,0,.76-.02,1.58-.03,2.46-.04.88,0,1.69-.01,2.46-.02h1.58c.22.11.36.11.44,0,.07-.11.1-.24.1-.38Z"/>
    <path class="cls-2" d="M193.55,136.83l32.21,14.23c-.18,1.09-.49,2.48-.92,4.15-.42,1.67-.93,3.42-1.54,5.27-.6,1.84-1.24,3.54-1.94,5.08-.7,1.55-1.61,2.97-2.75,4.25-1.14,1.29-2.44,2.34-3.9,3.17-1.46.83-3.03,1.3-4.71,1.42-1.67.11-3.39-.24-5.17-1.04-1.18-.53-2.01-1.24-2.48-2.15-.46-.89-.87-1.93-1.23-3.13-.38-1.04-.62-2-.73-2.88-.1-.88-.17-1.84-.21-2.9,0,0-.02-.06-.04-.19-.33.08-.93.25-1.79.5-.86.25-1.79.52-2.77.81-.97.29-1.86.54-2.69.75-.83.22-1.42.38-1.75.48-.88.28-1.82.46-2.85.54-1.03.08-1.97-.07-2.83-.46-.89-.41-1.45-.97-1.69-1.71-.23-.74-.28-1.55-.15-2.44.14-.88.37-1.74.69-2.58.32-.85.61-1.57.88-2.17.32-.72.81-1.29,1.46-1.71.66-.42,1.39-.7,2.21-.85l8.81-1.35c-.24-.11-.71-.35-1.42-.71-.71-.36-1.41-.73-2.08-1.1-.68-.36-1.16-.6-1.44-.71-2.21-1.16-2.89-2.93-2.04-5.31.08-.29.24-.75.48-1.38.22-.63.45-1.24.67-1.83.21-.6.34-.99.4-1.17.02-.02.11-.22.29-.63.17-.41.29-.69.38-.85.04-.1.16-.34.33-.73.18-.39.29-.62.31-.69ZM209.88,156.43s-.17-.07-.38-.13c-.21-.06-.34-.06-.4,0-.03-.02-.1.05-.21.21-.11.15-.19.28-.23.38-.35.76-.55,1.66-.6,2.69-.06,1.04.09,2.02.46,2.94.36.92.98,1.57,1.88,1.96.51.23,1.03.23,1.54-.02.51-.24.9-.6,1.17-1.08.04-.08.16-.35.35-.81.21-.45.33-.71.38-.79.23-.53.45-1.04.65-1.54.21-.5.34-1.06.42-1.67,0,0-.01-.01-.02-.02h-.02s-.06-.02-.06-.02c-.22-.1-.68-.3-1.38-.6-.7-.29-1.4-.58-2.1-.88-.7-.29-1.18-.49-1.44-.6Z"/>
    <path class="cls-2" d="M170.81,175.39c2.24.72,4.56,1.28,6.96,1.69,2.41.4,4.79.5,7.15.29-.22-.21-.57-.56-1.04-1.06-.48-.49-1.01-1.03-1.58-1.63-.58-.6-1.09-1.14-1.54-1.63-.46-.49-.8-.83-1.02-1.02-.28-.27-.65-.66-1.1-1.17-.46-.5-.81-1.03-1.06-1.58-.26-.56-.27-1.08-.02-1.56.06-.06.2-.2.42-.44.22-.24.36-.39.42-.44.1-.11.24-.27.44-.48.2-.2.31-.31.33-.35.21-.16.59-.49,1.15-1,.54-.5,1.09-.99,1.65-1.48.56-.49.95-.83,1.17-1.02.43-.33.89-.36,1.38-.08.5.29.91.56,1.23.81.01.03.02.04.02.04,0,0,.02.01.06.04,1.38,1.17,2.63,2.26,3.75,3.29,1.14,1.03,2.42,2.21,3.83,3.56,2.65,2.48,5.42,5.14,8.31,7.96,2.9,2.82,5.69,5.43,8.35,7.83l.02.71s-.22.32-.67.85c-.43.54-.94,1.15-1.52,1.81-.57.67-1.04,1.19-1.42,1.58-.06.05-.2.2-.42.44-.21.25-.36.43-.46.54-.72.76-1.41,1.32-2.06,1.69-.64.36-1.39.14-2.23-.67-.72-.68-1.62-1.52-2.69-2.5-1.06-.99-1.97-1.83-2.73-2.54-.13-.13-.41-.4-.85-.81-.43-.41-.71-.67-.83-.79l.04.21c.08.33.23.89.46,1.67.23.78.48,1.63.73,2.56.25.94.48,1.81.71,2.6.23.8.4,1.35.48,1.65.13.46.31,1.06.56,1.81.25.76.42,1.53.52,2.31.09.78-.06,1.38-.46,1.81-.02.01-.04.03-.06.06-.03.03-.04.04-.04.04l-5.4,4.38c-.29.26-.64.46-1.02.58-.39.14-.76.05-1.1-.27-.17-.16-.3-.34-.4-.56-.08-.21-.18-.43-.27-.67l-5.23-16.15s-.01-.02-.04-.04c-.03-.02-.04-.02-.04-.02-.13-.13-.28-.19-.48-.19-.3-.03-.88-.11-1.71-.25-.83-.13-1.72-.27-2.67-.42-.94-.14-1.82-.28-2.63-.42-.8-.14-1.38-.24-1.71-.31-.23-.03-.71-.13-1.42-.29s-1.42-.33-2.15-.5c-.72-.16-1.21-.26-1.48-.31-.17-.06-.45-.16-.85-.29-.42-.14-.84-.29-1.29-.44-.46-.16-.78-.27-.96-.33-.3-.1-.67-.24-1.1-.42-.44-.18-.8-.4-1.06-.65-.4-.38-.57-.79-.52-1.25.04-.45.2-.87.48-1.27.28-.41.57-.77.88-1.08.1-.11.27-.29.5-.54.24-.24.38-.39.42-.44.13-.14.41-.41.83-.81.43-.39.88-.79,1.33-1.21.45-.41.75-.7.92-.88.35-.24.64-.4.88-.48.24-.07.56-.1.98-.1Z"/>
    <path class="cls-2" d="M163.18,181.75c.31-.11.69-.16,1.15-.13.46.03.79.26.98.71.13.21.37.6.73,1.19.36.58.73,1.17,1.1,1.77.38.59.61.99.73,1.19.03.05.16.29.4.71.25.43.51.89.79,1.38.28.5.48.86.63,1.1.14.25.33.59.58,1.04.25.44.48.86.71,1.25.22.39.34.59.35.63.26.47.69,1.26,1.27,2.35.59,1.09,1.27,2.34,2.02,3.75.76,1.4,1.51,2.79,2.25,4.17.75,1.38,1.41,2.61,1.98,3.71.58,1.11,1,1.91,1.25,2.4.08.15.21.42.4.81.19.39.3.66.33.81v.1c.01.08.03.15.06.19-.06.64-.03,1.14.08,1.5.13.36-.13.71-.75,1.06-.07.04-.16.09-.27.15-.1.07-.17.11-.21.13-.43.25-1.19.65-2.27,1.21-1.07.57-2.24,1.18-3.5,1.83-1.27.65-2.44,1.27-3.52,1.85s-1.82.98-2.21,1.21c-.08.04-.18.09-.27.15-.08.05-.18.11-.27.17-.71.34-1.5.69-2.38,1.04-.88.36-1.71.53-2.5.5-.8-.02-1.45-.45-1.94-1.29-.03-.07-.09-.21-.21-.42-.13-.2-.2-.31-.23-.35-.07-.11-.21-.39-.42-.83-.21-.43-.42-.89-.63-1.35-.22-.46-.38-.8-.48-1.02-.15-.33-.31-.81-.48-1.42-.17-.61-.07-1.1.27-1.48.16-.08.47-.27.94-.54.47-.27.95-.53,1.42-.79.47-.27.8-.45.98-.56.92-.52,1.85-1.04,2.81-1.56.96-.52,1.9-1.03,2.81-1.54l-1.46-2.6c-.24.11-.65.28-1.23.52-.59.23-1.19.48-1.77.73s-.97.42-1.17.5c-.48.23-1.05.41-1.71.52-.65.11-1.15-.13-1.48-.71-.03-.04-.05-.08-.06-.13-.03-.04-.05-.08-.08-.13-.09-.27-.28-.73-.54-1.4-.28-.66-.54-1.3-.79-1.94-.26-.64-.44-1.08-.54-1.31-.13-.38-.2-.85-.23-1.42-.04-.56.18-.97.65-1.23l4.88-2.79s-.02-.09-.06-.27c-.05-.17-.1-.28-.15-.33-.01-.04-.07-.16-.19-.35-.11-.18-.2-.33-.27-.44-.01-.04-.08-.18-.21-.4-.13-.21-.21-.35-.25-.44l-7.25,3.56c-1.86.93-3.3.51-4.31-1.27-.4-.7-.77-1.37-1.1-2.02-.33-.66-.67-1.36-1.02-2.13-.53-1.16-.27-2.13.77-2.92.31-.27.75-.61,1.33-1.04.58-.43,1.12-.83,1.6-1.21.49-.36.77-.56.85-.6.04-.03.22-.14.54-.31.31-.17.65-.36,1.02-.58.38-.21.68-.39.9-.52.18-.1.45-.25.81-.46.36-.21.7-.41,1.02-.58.32-.17.51-.27.56-.31.22-.13.64-.31,1.23-.56.6-.25,1.25-.53,1.96-.83.7-.29,1.34-.57,1.94-.83.6-.25,1.04-.43,1.31-.52Z"/>
    <path class="cls-2" d="M146.59,191.28l8,34.29c-.99.51-2.28,1.09-3.88,1.75-1.58.67-3.29,1.31-5.13,1.94-1.83.64-3.57,1.15-5.23,1.52-1.65.38-3.33.49-5.04.35-1.72-.14-3.35-.55-4.9-1.23-1.54-.67-2.86-1.64-3.96-2.9-1.09-1.27-1.85-2.85-2.27-4.75-.29-1.27-.21-2.35.23-3.27.45-.92,1.03-1.87,1.75-2.85.61-.93,1.24-1.7,1.88-2.31.64-.6,1.36-1.24,2.17-1.92,0,0,.05-.06.15-.17-.28-.2-.77-.57-1.48-1.13-.72-.54-1.49-1.12-2.31-1.73-.82-.61-1.56-1.18-2.23-1.71-.68-.53-1.16-.89-1.44-1.08-.73-.54-1.44-1.2-2.13-1.98-.69-.77-1.15-1.6-1.35-2.52-.21-.95-.09-1.74.35-2.38.45-.63,1.06-1.16,1.85-1.58.79-.42,1.63-.75,2.5-1,.86-.25,1.61-.45,2.25-.58.77-.18,1.51-.14,2.23.13.72.26,1.39.68,2,1.25l6.4,6.21c-.05-.25-.15-.77-.29-1.56-.14-.78-.26-1.55-.38-2.31-.13-.77-.21-1.29-.27-1.56-.42-2.46.58-4.08,3-4.85.28-.1.74-.24,1.4-.44.64-.2,1.26-.39,1.85-.56.6-.18.99-.3,1.17-.35.03-.02.26-.07.69-.17.42-.1.72-.17.9-.21.11-.02.38-.07.79-.17.42-.1.66-.16.73-.17ZM140.76,216.09s-.06-.16-.15-.35c-.08-.2-.15-.3-.21-.31-.01-.04-.11-.06-.29-.06-.19,0-.34.01-.46.04-.8.18-1.64.56-2.5,1.15-.88.58-1.57,1.29-2.08,2.13-.51.84-.66,1.74-.44,2.69.13.55.44.96.94,1.21.5.26,1.02.35,1.56.27.1-.02.39-.08.88-.19.47-.11.76-.18.85-.19.57-.13,1.12-.27,1.65-.42.52-.14,1.03-.35,1.54-.65v-.04s-.02-.06-.02-.06c-.05-.25-.17-.74-.35-1.48-.18-.72-.36-1.46-.54-2.21-.19-.74-.32-1.24-.38-1.52Z"/>
    <g class="cls-3">
      <path class="cls-2" d="M134.94,64.81c-.22,0-.46.02-.69.03-9.29,1.6-14.4,11.43-15.14,20.09-1.08,7.86,2.38,17.96,11.02,19.72,1.25.24,2.55.13,3.78-.2,10.39-3.48,15.04-15.79,13.54-25.99-.44-6.58-5.4-13.74-12.5-13.66ZM95.55,65.23c-5.78.14-10.28,6-11.19,11.51-1.93,10.91,3.03,24.47,14.4,27.92,1.06.23,2.17.26,3.24.09,7.69-1.28,10.94-9.89,10.62-16.85-.23-9.17-4.99-19.78-14.53-22.36-.87-.23-1.72-.33-2.54-.31ZM160.11,96.22c-9.99.6-16.84,10.57-17.82,19.88-1.32,6.72,2.26,15.7,9.92,16.23,10.69-.13,17.97-11.55,18.28-21.37.68-6.5-3.15-14.39-10.38-14.74ZM72.64,98.44c-4.25-.04-8.43,2.51-9.82,6.83-3.71,11.56,3.74,26.2,15.98,28.64,5.11.88,9.6-3.05,10.86-7.78,2.69-10.1-2.83-21.83-12.16-26.41-1.52-.85-3.2-1.27-4.86-1.28h0ZM117.45,119.17c-8.33.02-16.8,4.24-22.2,10.54-5.83,7.34-10.6,15.88-12.47,25.14-2.27,6.67,2.88,14.34,10,14.39,8.57.24,15.94-5.65,24.47-6.09,7.23-1.1,13.71,2.66,20.21,5.13,5.54,2.36,13.19,1.46,16.02-4.5,2.22-6.07-1.05-12.55-3.76-17.94-5.53-8.76-11.46-17.96-20.52-23.42-3.64-2.26-7.68-3.25-11.74-3.24Z"/>
    </g>
  </g>
</svg>